<svg width="24" height="24" viewBox="0 0 24 24" fill="none" xmlns="http://www.w3.org/2000/svg">
<g clip-path="url(#clip0_6294_8102)">
<mask id="mask0_6294_8102" style="mask-type:luminance" maskUnits="userSpaceOnUse" x="0" y="0" width="24" height="24">
<path d="M24 0H0V24H24V0Z" fill="white"/>
</mask>
<g mask="url(#mask0_6294_8102)">
<path d="M12 12C14.7614 12 17 9.76142 17 7C17 4.23858 14.7614 2 12 2C9.23858 2 7 4.23858 7 7C7 9.76142 9.23858 12 12 12Z" stroke="#586D93" stroke-width="1.5" stroke-linecap="round" stroke-linejoin="round"/>
<path d="M3.41406 22C3.41406 18.13 7.26408 15 12.0041 15" stroke="#586D93" stroke-width="1.5" stroke-linecap="round" stroke-linejoin="round"/>
<path d="M18.2 21.4C19.9673 21.4 21.4 19.9673 21.4 18.2C21.4 16.4327 19.9673 15 18.2 15C16.4327 15 15 16.4327 15 18.2C15 19.9673 16.4327 21.4 18.2 21.4Z" stroke="#586D93" stroke-width="1.5" stroke-linecap="round" stroke-linejoin="round"/>
<path d="M22 22L21 21" stroke="#586D93" stroke-width="1.5" stroke-linecap="round" stroke-linejoin="round"/>
</g>
</g>
<defs>
<clipPath id="clip0_6294_8102">
<rect width="24" height="24" fill="white"/>
</clipPath>
</defs>
</svg>
