<svg width="36" height="36" viewBox="0 0 36 36" fill="none" xmlns="http://www.w3.org/2000/svg">
<g clip-path="url(#clip0_1102_1806)">
<mask id="mask0_1102_1806" style="mask-type:luminance" maskUnits="userSpaceOnUse" x="0" y="0" width="36" height="36">
<path d="M36 0H0V36H36V0Z" fill="white"/>
</mask>
<g mask="url(#mask0_1102_1806)">
<path d="M32.6398 23.88L23.0398 6.6C21.7498 4.275 19.9648 3 17.9998 3C16.0348 3 14.2497 4.275 12.9597 6.6L3.35972 23.88C2.14472 26.085 2.00972 28.2 2.98472 29.865C3.95972 31.53 5.87972 32.445 8.39972 32.445H27.5998C30.1198 32.445 32.0398 31.53 33.0148 29.865C33.9898 28.2 33.8548 26.07 32.6398 23.88ZM16.8748 13.5C16.8748 12.885 17.3848 12.375 17.9998 12.375C18.6148 12.375 19.1248 12.885 19.1248 13.5V21C19.1248 21.615 18.6148 22.125 17.9998 22.125C17.3848 22.125 16.8748 21.615 16.8748 21V13.5ZM19.0648 26.565C18.9898 26.625 18.9148 26.685 18.8398 26.745C18.7498 26.805 18.6598 26.85 18.5698 26.88C18.4798 26.925 18.3898 26.955 18.2848 26.97C18.1948 26.985 18.0898 27 17.9998 27C17.9098 27 17.8048 26.985 17.6998 26.97C17.6098 26.955 17.5198 26.925 17.4298 26.88C17.3398 26.85 17.2498 26.805 17.1598 26.745C17.0848 26.685 17.0098 26.625 16.9348 26.565C16.6648 26.28 16.4998 25.89 16.4998 25.5C16.4998 25.11 16.6648 24.72 16.9348 24.435C17.0098 24.375 17.0848 24.315 17.1598 24.255C17.2498 24.195 17.3398 24.15 17.4298 24.12C17.5198 24.075 17.6098 24.045 17.6998 24.03C17.8948 23.985 18.1048 23.985 18.2848 24.03C18.3898 24.045 18.4798 24.075 18.5698 24.12C18.6598 24.15 18.7498 24.195 18.8398 24.255C18.9148 24.315 18.9898 24.375 19.0648 24.435C19.3348 24.72 19.4998 25.11 19.4998 25.5C19.4998 25.89 19.3348 26.28 19.0648 26.565Z" fill="#4866F6"/>
</g>
</g>
<defs>
<clipPath id="clip0_1102_1806">
<rect width="36" height="36" fill="white"/>
</clipPath>
</defs>
</svg>
