<svg width="24" height="24" viewBox="0 0 24 24" fill="none" xmlns="http://www.w3.org/2000/svg">
<mask id="mask0_6294_7844" style="mask-type:luminance" maskUnits="userSpaceOnUse" x="0" y="0" width="24" height="24">
<path d="M24 0H0V24H24V0Z" fill="white"/>
</mask>
<g mask="url(#mask0_6294_7844)">
<path d="M11.9984 22.7576C10.9084 22.7576 9.82844 22.4375 8.97844 21.8076L4.67844 18.5976C3.53844 17.7476 2.64844 15.9775 2.64844 14.5575V7.1175C2.64844 5.5775 3.77844 3.9375 5.22844 3.3975L10.2184 1.5275C11.2084 1.1575 12.7684 1.1575 13.7584 1.5275L18.7584 3.3975C20.2084 3.9375 21.3384 5.5775 21.3384 7.1175V14.5476C21.3384 15.9676 20.4484 17.7376 19.3084 18.5876L15.0084 21.7976C14.1684 22.4375 13.0884 22.7576 11.9984 22.7576ZM10.7484 2.9375L5.75844 4.8075C4.89844 5.1275 4.14844 6.2075 4.14844 7.1275V14.5575C4.14844 15.5075 4.81844 16.8376 5.56844 17.3976L9.86844 20.6076C11.0184 21.4676 12.9684 21.4676 14.1184 20.6076L18.4184 17.3976C19.1784 16.8276 19.8384 15.4975 19.8384 14.5575V7.1175C19.8384 6.2075 19.0884 5.1275 18.2284 4.7975L13.2384 2.9275C12.5784 2.6875 11.4184 2.6875 10.7484 2.9375Z" fill="#586D93"/>
<path d="M12 13.25C10.48 13.25 9.25 12.02 9.25 10.5C9.25 8.98 10.48 7.75 12 7.75C13.52 7.75 14.75 8.98 14.75 10.5C14.75 12.02 13.52 13.25 12 13.25ZM12 9.25C11.31 9.25 10.75 9.81 10.75 10.5C10.75 11.19 11.31 11.75 12 11.75C12.69 11.75 13.25 11.19 13.25 10.5C13.25 9.81 12.69 9.25 12 9.25Z" fill="#586D93"/>
<path d="M12 16.25C11.59 16.25 11.25 15.91 11.25 15.5V12.5C11.25 12.09 11.59 11.75 12 11.75C12.41 11.75 12.75 12.09 12.75 12.5V15.5C12.75 15.91 12.41 16.25 12 16.25Z" fill="#586D93"/>
</g>
</svg>
