<svg width="24" height="24" viewBox="0 0 24 24" fill="none" xmlns="http://www.w3.org/2000/svg">
<g clip-path="url(#clip0_1751_4016)">
<mask id="mask0_1751_4016" style="mask-type:luminance" maskUnits="userSpaceOnUse" x="0" y="0" width="24" height="24">
<path d="M24 0H0V24H24V0Z" fill="white"/>
</mask>
<g mask="url(#mask0_1751_4016)">
<path d="M9.31055 14.6992L10.8106 16.1992L14.8106 12.1992" stroke="#586D93" stroke-width="1.5" stroke-linecap="round" stroke-linejoin="round"/>
<path d="M10.96 2H10C9 2 8 2 8 4C8 6 9 6 10 6H14C16 6 16 5 16 4C16 2 15 2 14 2" stroke="#586D93" stroke-width="1.5" stroke-miterlimit="10" stroke-linecap="round" stroke-linejoin="round"/>
<path d="M3 9.99953C3 5.43953 4.67 4.19953 8 4.01953" stroke="#586D93" stroke-width="1.5" stroke-miterlimit="10" stroke-linecap="round" stroke-linejoin="round"/>
<path d="M16 4.01953C19.33 4.19953 21 5.42953 21 9.99953V15.9995C21 19.9995 20 21.9995 15 21.9995H9C4 21.9995 3 19.9995 3 15.9995V13.9095" stroke="#586D93" stroke-width="1.5" stroke-miterlimit="10" stroke-linecap="round" stroke-linejoin="round"/>
</g>
</g>
<defs>
<clipPath id="clip0_1751_4016">
<rect width="24" height="24" fill="white"/>
</clipPath>
</defs>
</svg>
