<svg width="24" height="24" viewBox="0 0 24 24" fill="none" xmlns="http://www.w3.org/2000/svg">
<path d="M21.2591 6.46874C21.2136 6.3563 21.1415 6.25656 21.049 6.1781C20.9565 6.09963 20.8463 6.04477 20.728 6.01822C20.6096 5.99167 20.4866 5.99423 20.3694 6.02567C20.2522 6.05711 20.1445 6.1165 20.0553 6.19874L16.2772 9.6853L14.6619 9.33843L14.315 7.72312L17.8016 3.94499C17.8838 3.85583 17.9432 3.74805 17.9746 3.63089C18.0061 3.51374 18.0086 3.39071 17.9821 3.27235C17.9555 3.15399 17.9007 3.04383 17.8222 2.95133C17.7437 2.85883 17.644 2.78674 17.5316 2.74124C16.5068 2.32671 15.3959 2.17019 14.2965 2.28545C13.1972 2.4007 12.1429 2.78419 11.2264 3.40223C10.3099 4.02026 9.55919 4.85393 9.04027 5.82998C8.52135 6.80602 8.25009 7.89458 8.2503 8.99999C8.24909 9.93344 8.44059 10.8571 8.8128 11.7131L3.16812 16.5937C3.15405 16.605 3.14093 16.6181 3.1278 16.6303C2.56513 17.193 2.24902 17.9561 2.24902 18.7519C2.24902 19.1459 2.32663 19.536 2.47741 19.9C2.62819 20.2641 2.8492 20.5948 3.1278 20.8734C3.40641 21.152 3.73717 21.373 4.10118 21.5238C4.4652 21.6746 4.85536 21.7522 5.24937 21.7522C6.04511 21.7522 6.80826 21.4361 7.37093 20.8734C7.38312 20.8612 7.39624 20.8472 7.40749 20.8341L12.2872 15.1875C13.3151 15.6387 14.4393 15.8264 15.558 15.7337C16.6768 15.6409 17.7547 15.2706 18.6943 14.6563C19.6338 14.042 20.4053 13.203 20.9389 12.2153C21.4726 11.2277 21.7514 10.1226 21.7503 8.99999C21.7518 8.13241 21.5849 7.27279 21.2591 6.46874ZM15.0003 14.25C14.1126 14.2488 13.2395 14.023 12.4625 13.5937C12.3119 13.5106 12.1374 13.4817 11.9681 13.5119C11.7988 13.5421 11.645 13.6296 11.5325 13.7597L6.29187 19.8291C6.00827 20.0985 5.63065 20.2465 5.23951 20.2415C4.84836 20.2365 4.47465 20.0788 4.19805 19.8022C3.92145 19.5256 3.76384 19.1519 3.75883 18.7608C3.75382 18.3696 3.90181 17.992 4.17124 17.7084L10.2359 12.4687C10.3663 12.3562 10.4539 12.2022 10.4841 12.0327C10.5143 11.8632 10.4853 11.6884 10.4019 11.5378C9.92377 10.6731 9.6994 9.69101 9.75455 8.70447C9.8097 7.71793 10.1421 6.76698 10.7136 5.96095C11.2851 5.15491 12.0725 4.52652 12.9852 4.14801C13.8979 3.76949 14.8989 3.65623 15.8731 3.82124L12.9481 6.99093C12.8667 7.07922 12.8077 7.18575 12.7761 7.30158C12.7444 7.41741 12.7411 7.53915 12.7662 7.65655L13.2969 10.125C13.3272 10.2662 13.3977 10.3956 13.4998 10.4977C13.6019 10.5998 13.7313 10.6703 13.8725 10.7006L16.3428 11.2312C16.4602 11.2564 16.5819 11.253 16.6978 11.2214C16.8136 11.1897 16.9201 11.1308 17.0084 11.0494L20.1781 8.12437C20.3045 8.87719 20.2653 9.6485 20.0634 10.3847C19.8615 11.1208 19.5016 11.8041 19.0088 12.3871C18.516 12.9701 17.9022 13.4388 17.2099 13.7605C16.5177 14.0822 15.7637 14.2492 15.0003 14.25Z" fill="#586D93"/>
</svg>
